<svg xmlns="http://www.w3.org/2000/svg" xmlns:xlink="http://www.w3.org/1999/xlink" width="48" height="48" viewBox="0 0 48 48">
    <defs>
        <path id="byekjx88ja" d="M18.584 15.659l.184.177.185-.177c.592-.568 1.455-.79 2.264-.582.809.208 1.44.814 1.657 1.59.217.777-.014 1.606-.606 2.174l-3.5 3.359-3.498-3.359c-.916-.879-.916-2.303 0-3.182.915-.879 2.4-.879 3.314 0zM12.5 14v2c-3.452 0-6.25 2.686-6.25 6H4.167c0-4.32 3.574-7.861 8.073-7.996L12.5 14zm0-13c3.453 0 6.25 2.685 6.25 6 .001 3.227-2.657 5.876-6.016 5.996L12.5 13c-3.453 0-6.25-2.685-6.25-6-.001-3.227 2.657-5.876 6.016-5.996L12.5 1zm0 2c-2.302 0-4.167 1.79-4.167 4s1.865 4 4.167 4c2.302 0 4.167-1.79 4.167-4S14.802 3 12.5 3z"/>
    </defs>
    <g fill="none" fill-rule="evenodd">
        <g>
            <g>
                <g>
                    <g>
                        <path fill="#00BCFF" fill-opacity=".154" d="M15.383 0h17.234c5.349 0 7.289.557 9.244 1.603 1.956 1.046 3.49 2.58 4.536 4.536C47.443 8.094 48 10.034 48 15.383v17.234c0 5.349-.557 7.289-1.603 9.244-1.046 1.956-2.58 3.49-4.536 4.536C39.906 47.443 37.966 48 32.617 48H15.383c-5.349 0-7.289-.557-9.244-1.603-1.956-1.046-3.49-2.58-4.536-4.536C.557 39.906 0 37.966 0 32.617V15.383c0-5.349.557-7.289 1.603-9.244 1.046-1.956 2.58-3.49 4.536-4.536C8.094.557 10.034 0 15.383 0z" transform="translate(-90 -1283) translate(60 1029) translate(0 224) translate(30 30)"/>
                        <g transform="translate(-90 -1283) translate(60 1029) translate(0 224) translate(30 30) translate(12 12)">
                            <mask id="lfc67ep0ub" fill="#fff">
                                <use xlink:href="#byekjx88ja"/>
                            </mask>
                            <use fill="#1B2235" fill-rule="nonzero" xlink:href="#byekjx88ja"/>
                            <path fill="#00BCFF" fill-rule="nonzero" d="M0 0H25V24H0z" mask="url(#lfc67ep0ub)"/>
                        </g>
                    </g>
                </g>
            </g>
        </g>
    </g>
</svg>
