<svg xmlns="http://www.w3.org/2000/svg" xmlns:xlink="http://www.w3.org/1999/xlink" width="48" height="48" viewBox="0 0 48 48">
    <defs>
        <path id="1otbqq4bxa" d="M12.5 2L1.042 6.627l3.903 1.498v1.197c-.945 1.811-1.89 5.615-1.89 9.961h3.948C8.131 20.613 9.914 22 12.5 22s4.369-1.388 5.497-2.717h3.947c0-4.346-.944-8.15-1.889-9.96V8.124l1.89-.725v4.639h1.888V6.675l.125-.048L12.5 2zm0 1.967l6.484 2.617-.818.313v2.425H6.834V6.897l-.818-.313L12.5 3.967zm-3.778 7.166h7.556c1.038 0 1.888.815 1.888 1.811v.906c0 1.265-.352 2.295-.802 3.118-.687 1.143-2.284 3.22-4.864 3.22s-4.177-2.077-4.864-3.22c-.45-.823-.802-1.853-.802-3.118v-.906c0-.996.84-1.81 1.888-1.81z"/>
    </defs>
    <g fill="none" fill-rule="evenodd">
        <g>
            <g>
                <g>
                    <g>
                        <path fill="#E39A15" fill-opacity=".15" d="M15.383 0h17.234c5.349 0 7.289.557 9.244 1.603 1.956 1.046 3.49 2.58 4.536 4.536C47.443 8.094 48 10.034 48 15.383v17.234c0 5.349-.557 7.289-1.603 9.244-1.046 1.956-2.58 3.49-4.536 4.536C39.906 47.443 37.966 48 32.617 48H15.383c-5.349 0-7.289-.557-9.244-1.603-1.956-1.046-3.49-2.58-4.536-4.536C.557 39.906 0 37.966 0 32.617V15.383c0-5.349.557-7.289 1.603-9.244 1.046-1.956 2.58-3.49 4.536-4.536C8.094.557 10.034 0 15.383 0z" transform="translate(-490 -1695) translate(60 1029) translate(400 636) translate(30 30)"/>
                        <g transform="translate(-490 -1695) translate(60 1029) translate(400 636) translate(30 30) translate(12 12)">
                            <mask id="l5hr22r62b" fill="#fff">
                                <use xlink:href="#1otbqq4bxa"/>
                            </mask>
                            <use fill="#000" fill-rule="nonzero" xlink:href="#1otbqq4bxa"/>
                            <path fill="#E39A15" fill-rule="nonzero" d="M0 0H25V24H0z" mask="url(#l5hr22r62b)"/>
                        </g>
                    </g>
                </g>
            </g>
        </g>
    </g>
</svg>
