<svg xmlns="http://www.w3.org/2000/svg" width="148" height="24" viewBox="0 0 148 24">
    <g fill="none" fill-rule="evenodd">
        <g fill="#000" fill-rule="nonzero">
            <g>
                <path d="M7.435 7.385c3.41 0 3.43 2.18 3.41 2.678-.07 1.762-2.144 1.722-2.565 1.357-.45-.39.086-1.437-.406-1.437-2.148 0-3.871 5.034-3.871 7.69 0 1.392.502 3.423 2.378 3.423 3.173 0 5.323-3.971 5.323-3.971v1.84s-2.725 4.59-6.746 4.59c-3.398 0-4.902-3.353-4.902-5.939C.053 12.457 3.08 7.385 7.436 7.385z" transform="translate(-60 -30) translate(60 30)"/>
                <path d="M17.456 7.89c-4.398 0-6.17 8.032-6.17 9.953 0 .683.326 5.152 4.394 5.579 4.277.448 6.915-6.59 7.166-10.043.271-3.71-1.585-4.446-2.352-4.188-.814.272-.847 1.215-.537 1.631.79 1.058 1.895 1.507 2.836 1.507.824-.003 1.627-.261 2.298-.74l-.432-.895s-.434.549-1.799.549c-1.364 0-2.102-.838-2.102-.838s.918.835.677 2.933c-.303 2.656-2.161 7.79-4.833 7.79-.61 0-1.977-.57-1.632-3.45.628-5.218 4.37-8.14 4.37-8.14s0-1.647-1.884-1.647z" transform="translate(-60 -30) translate(60 30)"/>
                <path d="M25.772 10.258c.309-.539.532-1.123.66-1.73.06-.301.155-.786 0-.822-.097-.023-.25.308-.304.565-.033.162-.6 1.952 1.176 2.252 1.126.193 4.074-.437 4.354.904.163.772-1.765 3.442-2.397 5.925-.433 1.709-.677 3.55.428 3.55 2.906 0 6.73-10.379 6.73-10.379l.857.415s-4.211 12.448-8.843 12.448c-1.2 0-3.123-1.22-3.123-3.9 0-3.31 2.286-7.331 2.136-7.331-2.603 0-4.063-1.427-4.062-3.31 0-2.066 1.485-2.84 2.391-2.84 1.157 0 1.778 1.2 1.825 1.708.182 1.972-1.139 2.971-1.139 2.971l-.69-.426z" transform="translate(-60 -30) translate(60 30)"/>
                <path d="M35.94 11.446s.677-.93.976-2.603c.115-.651 0-1.135-.325-1.135-.326 0-.5.871-.5 1.135 0 1.206.727 1.811 1.37 1.977.711.183 4.195-.595 4.432.628.138.707-1.522 3.423-2.154 5.907-.434 1.708-.678 3.704.427 3.704 2.188 0 4.26-5.81 4.26-5.81l.373 1.099s-1.574 7.034-6.205 7.034c-1.2 0-2.815-1.22-2.815-3.9 0-3.31 2.131-7.331 1.982-7.331-2.6 0-4.063-1.427-4.063-3.31C33.698 6.774 35.18 6 36.086 6c1.157 0 1.933 1.058 1.924 1.985-.018 1.944-1.099 3.46-1.099 3.46l-.971.001z" transform="translate(-60 -30) translate(60 30)"/>
                <path d="M43.934 18.024c0-2.38 2.187-10.146 7.409-10.146 2.354 0 3.143 1.532 2.83 2.69-.977 3.588-7.397 7.705-7.397 7.705s-.478-1.261-.325-1.311c.834-.269 7.959-6.394 5.788-7.05-.894-.269-4.14 1.883-4.954 7.709 0 0-.37 3.86 2.23 3.86 3.244 0 5.62-5.364 5.62-5.364l1.006.325s-2.963 6.75-7.311 6.963c-1.11.058-4.896-.791-4.896-5.38z" transform="translate(-60 -30) translate(60 30)"/>
                <path d="M61.497 8.001c3.074 0 3.872 1.465 3.872 2.33 0 .902-1.31 1.345-2.103.778-.72-.514-.288-.976-.718-.976-1.98 0-4.029 4.312-4.024 7.397 0 1.646.455 3.424 1.997 3.66 2.745.425 3.73-1.907 4.047-1.698.651.425-1.523 3.923-5.294 3.923-3.245 0-4.854-3.208-4.854-5.695.003-4.963 3.668-9.719 7.077-9.719z" transform="translate(-60 -30) translate(60 30)"/>
                <path d="M61.947 8.698s-.814-1.21-.565-3.402c.318-2.8 2.988-5.24 6.74-5.24 4.375 0 6.97 2.412 5.965 6.383-1.082 4.267-5.49 14.76-2.65 14.76 1.753 0 5.082-4.75 5.082-4.75l.346 1.447s-3.718 5.55-6.621 5.55c-6.853 0-2.46-9.855-.123-17.224.789-2.489.277-4.713-2.338-4.713-3.45 0-4.756 2.435-4.923 3.824-.318 2.628.814 3.034.814 3.034l-1.727.33z" transform="translate(-60 -30) translate(60 30)"/>
                <path d="M66.711 8.185c-.336-.306.618-2.115 1.028-2.355.163-.098 4.222-.02 6.56-.02 2.337 0 6.072-.082 6.174 0 .244.195-.766 1.606-2.338 2.003-1.695.432-11.035.727-11.424.372zM86.63 10.614c.387-.442.121-2.543-3.222-2.543-3.898 0-6.873 3.71-7.66 7.904-.744 3.967.82 7.403 4.237 7.403 3.087 0 5.94-4.784 5.94-4.784l-.088-1.458s-2.65 4.082-4.567 4.082c-1.448 0-2.07-1.4-1.602-4.5.468-3.098 3.125-7.026 5.03-7.026 1.43-.004 1.755 1.127 1.932.922z" transform="translate(-60 -30) translate(60 30)"/>
                <path d="M86.43 11.31c.193-.272 3.223-.3 3.217-.025-.013.552-3.48 10.001-1.512 10.001 2.16 0 6.255-9.823 6.255-9.823l.955.319s-4.393 11.634-8.391 11.634c-2.412 0-3.167-2.33-2.487-6.162.375-2.111 1.237-4.921 1.962-5.944z" transform="translate(-60 -30) translate(60 30)"/>
                <path d="M94.314 11.446s.677-.93.977-2.603c.114-.651 0-1.135-.326-1.135-.325 0-.499.871-.499 1.135 0 1.206.722 1.845 1.37 1.977.895.183 4.388-.454 4.586.628.127.7-1.522 3.423-2.155 5.907-.433 1.708-.677 3.55.428 3.55 2.156 0 6.225-9.653 6.225-9.653l1.005.041s-4.166 12.091-8.797 12.091c-1.2 0-2.97-1.22-2.97-3.9 0-3.31 2.132-7.331 1.983-7.331-2.604 0-4.063-1.426-4.062-3.31 0-2.066 1.481-2.84 2.387-2.84 1.157 0 1.933 1.057 1.925 1.985-.02 1.944-.946 3.46-.946 3.46l-1.13-.002z" transform="translate(-60 -30) translate(60 30)"/>
                <path d="M109.575 9.044c-1.47 5.071-4.664 12.024-2.097 12.024 1.753 0 5.082-5.017 5.082-5.017l.345 1.066s-3.718 6.324-6.62 6.324c-5.91 0-2.873-7.737-.64-14.436.186-.56 4.088-.504 3.93.04zM107.262 3.985c.764-.448 1.733-.33 2.368.288.563.543.318 2.105-.476 2.563-.724.436-1.652.324-2.252-.271-.585-.566-.503-2.083.36-2.58z" transform="translate(-60 -30) translate(60 30)"/>
                <path d="M117.738 9.382c-1.47 4.545-4.664 11.942-2.097 11.942 1.753 0 4.703-5.939 4.703-5.939l.014.051c.678 0-.362 2.675-.362 2.675s-2.646 5.339-5.549 5.339c-5.91 0-2.871-8.101-.639-14.103.186-.504 4.088-.452 3.93.035z" transform="translate(-60 -30) translate(60 30)"/>
                <path d="M125.902 9.382c-1.47 4.545-4.665 11.942-2.098 11.942 1.753 0 5.083-5.418 5.083-5.418l.344 1.215s-3.718 6.33-6.62 6.33c-5.91 0-2.872-8.102-.64-14.103.187-.505 4.088-.453 3.93.034z" transform="translate(-60 -30) translate(60 30)"/>
                <path d="M126.637 23.197c.252.22 1.773.38 2.625.219.962-.183 4.583-12.56 4.583-13.783 0-.503-2.497-1.064-3.861-.503-.25.102-3.988 13.506-3.347 14.067z" transform="translate(-60 -30) translate(60 30)"/>
                <path d="M128.682 23.027s6.932-13.839 9.878-14.106c3.245-.293 1.349 4.16.154 7.63-1.194 3.472-1.62 5.593-2.007 6.247-.44.744-2.942.624-3.049.229-.362-1.331 2.132-9.287 1.796-9.287-.17 0-5.976 9.5-5.976 9.5l-.796-.213z" transform="translate(-60 -30) translate(60 30)"/>
                <path d="M135.607 22.865s4.835-9.472 7.397-12.407c.793-.907 1.582-2.027 3.358-1.351 2.093.797-1.546 4.524-2.137 10.407-.175 1.74.318 4.15.56 4.37.244.222-3.07.303-3.92-2.718-.715-2.545.791-6.986.791-6.986l-4.993 8.685h-1.056z" transform="translate(-60 -30) translate(60 30)"/>
            </g>
        </g>
    </g>
</svg>
