<svg xmlns="http://www.w3.org/2000/svg" xmlns:xlink="http://www.w3.org/1999/xlink" width="48" height="48" viewBox="0 0 48 48">
    <defs>
        <path id="eru0xyiq0a" d="M5.208 9c.576 0 1.042.448 1.042 1 1.637-.002 3.226.526 4.51 1.5h2.26c1.39 0 2.636.58 3.495 1.5h3.277c2.01 0 3.84 1.109 4.704 2.851C22.032 18.972 18.044 21 13.542 21c-2.907 0-5.365-.603-7.354-1.658-.15.396-.541.659-.98.658H2.083c-.575 0-1.041-.448-1.041-1v-9c0-.552.466-1 1.041-1h3.125zm1.043 3l-.001 5.022.047.032C8.167 18.314 10.602 19 13.542 19c3.129 0 6.04-1.156 8.161-3.13l.139-.133-.125-.1c-.492-.37-1.088-.59-1.712-.63L19.792 15h-2.2c.076.322.116.656.116 1v1H8.333v-2l7.073-.001-.035-.078c-.407-.815-1.24-1.357-2.18-1.416l-.17-.005H9.969c-.978-.96-2.318-1.501-3.717-1.5h-.001zm-2.084-1H3.125v7h1.042v-7zM18.75 5c1.726 0 3.125 1.343 3.125 3s-1.4 3-3.125 3c-1.726 0-3.125-1.343-3.125-3s1.4-3 3.125-3zm0 2c-.575 0-1.042.448-1.042 1s.467 1 1.042 1 1.042-.448 1.042-1-.467-1-1.042-1zm-7.292-5c1.726 0 3.125 1.343 3.125 3s-1.399 3-3.125 3-3.125-1.343-3.125-3 1.4-3 3.125-3zm0 2c-.575 0-1.041.448-1.041 1s.466 1 1.041 1c.576 0 1.042-.448 1.042-1s-.466-1-1.042-1z"/>
    </defs>
    <g fill="none" fill-rule="evenodd">
        <g>
            <g>
                <g>
                    <g>
                        <path fill="#0068E4" fill-opacity=".15" d="M15.383 0h17.234c5.349 0 7.289.557 9.244 1.603 1.956 1.046 3.49 2.58 4.536 4.536C47.443 8.094 48 10.034 48 15.383v17.234c0 5.349-.557 7.289-1.603 9.244-1.046 1.956-2.58 3.49-4.536 4.536C39.906 47.443 37.966 48 32.617 48H15.383c-5.349 0-7.289-.557-9.244-1.603-1.956-1.046-3.49-2.58-4.536-4.536C.557 39.906 0 37.966 0 32.617V15.383c0-5.349.557-7.289 1.603-9.244 1.046-1.956 2.58-3.49 4.536-4.536C8.094.557 10.034 0 15.383 0z" transform="translate(-890 -1695) translate(60 1029) translate(800 636) translate(30 30)"/>
                        <g transform="translate(-890 -1695) translate(60 1029) translate(800 636) translate(30 30) translate(12 12)">
                            <mask id="c9z5lku4eb" fill="#fff">
                                <use xlink:href="#eru0xyiq0a"/>
                            </mask>
                            <use fill="#000" fill-rule="nonzero" xlink:href="#eru0xyiq0a"/>
                            <path fill="#0068E4" fill-rule="nonzero" d="M0 0H25V24H0z" mask="url(#c9z5lku4eb)"/>
                        </g>
                    </g>
                </g>
            </g>
        </g>
    </g>
</svg>
